<svg width="699" height="629" viewBox="0 0 699 629" fill="none" xmlns="http://www.w3.org/2000/svg">
<path d="M311.069 476.018H373.053C373.053 481.142 370.476 486.056 365.887 489.679C361.298 493.303 355.075 495.338 348.586 495.338H335.536C329.047 495.338 322.824 493.303 318.235 489.679C313.647 486.056 311.069 481.142 311.069 476.018Z" fill="#3F3D56" fill-opacity="0.42"/>
<path d="M387.536 432.76V414.805C387.536 393.11 417.417 372.589 436.801 357.949C464.124 337.323 478.486 309.613 478.486 277.153C478.486 248.633 464.164 221.278 438.662 201.083C413.159 180.889 378.556 169.504 342.44 169.425C306.323 169.346 271.641 180.578 245.996 200.66C220.352 220.742 205.838 248.034 205.636 276.553C205.636 276.753 205.636 276.953 205.636 277.153C205.636 308.454 220.615 338.042 247.322 357.949C266.601 372.32 296.586 392.886 296.586 414.805V432.76" fill="#FFEF63" fill-opacity="0.86"/>
<path d="M387.536 435.28C387.117 435.28 386.702 435.215 386.315 435.088C385.928 434.961 385.576 434.776 385.28 434.542C384.983 434.308 384.748 434.03 384.588 433.724C384.428 433.418 384.345 433.091 384.345 432.76V414.805C384.345 393.699 410.705 373.996 429.953 359.61C431.55 358.415 433.103 357.254 434.595 356.128C461.221 336.028 475.295 308.719 475.295 277.153C475.295 218.158 416.772 171.945 342.061 171.945C341.936 171.944 341.811 171.944 341.685 171.944C306.526 171.975 272.813 182.998 247.916 202.602C223.02 222.206 208.966 248.797 208.828 276.56V277.147C208.828 308.062 223.656 336.843 249.512 356.116C250.822 357.093 252.183 358.099 253.58 359.131C273.076 373.546 299.778 393.286 299.778 414.805V432.76C299.778 433.428 299.441 434.069 298.843 434.542C298.244 435.014 297.433 435.28 296.586 435.28C295.74 435.28 294.928 435.014 294.33 434.542C293.731 434.069 293.395 433.428 293.395 432.76V414.805C293.395 395.472 267.861 376.595 249.217 362.81C247.814 361.774 246.447 360.763 245.131 359.782C218.003 339.56 202.445 309.443 202.445 277.153V276.548C202.659 216.028 265.087 166.904 341.676 166.904C341.812 166.904 341.935 166.904 342.07 166.904C360.431 166.829 378.629 169.629 395.61 175.143C412.592 180.657 428.021 188.775 441.004 199.028C453.986 209.28 464.266 221.464 471.248 234.874C478.229 248.284 481.774 262.654 481.677 277.153C481.677 310.128 466.922 338.697 439.006 359.771C437.508 360.902 435.946 362.07 434.341 363.27C415.935 377.027 390.728 395.868 390.728 414.805V432.76C390.728 433.091 390.645 433.418 390.485 433.724C390.325 434.03 390.09 434.308 389.793 434.542C389.497 434.776 389.145 434.961 388.758 435.088C388.371 435.215 387.956 435.28 387.536 435.28Z" fill="#3F3D56" fill-opacity="0.24"/>
<path d="M372.378 467.617H311.745C310.334 467.617 308.981 467.175 307.983 466.387C306.986 465.599 306.425 464.531 306.425 463.417C306.425 462.303 306.986 461.235 307.983 460.447C308.981 459.659 310.334 459.217 311.745 459.217H372.378C373.788 459.217 375.141 459.659 376.139 460.447C377.136 461.235 377.697 462.303 377.697 463.417C377.697 464.531 377.136 465.599 376.139 466.387C375.141 467.175 373.788 467.617 372.378 467.617V467.617Z" fill="#E5E5E5"/>
<path d="M200.999 178.146C199.713 178.147 198.471 177.779 197.503 177.11L151.825 145.624C151.298 145.262 150.867 144.821 150.556 144.326C150.245 143.832 150.06 143.294 150.012 142.744C149.965 142.193 150.055 141.64 150.278 141.117C150.501 140.594 150.852 140.111 151.312 139.695C151.772 139.28 152.33 138.939 152.957 138.694C153.583 138.449 154.264 138.304 154.961 138.267C155.659 138.23 156.358 138.302 157.021 138.478C157.683 138.655 158.294 138.933 158.82 139.296L204.499 170.782C205.315 171.344 205.894 172.09 206.159 172.919C206.423 173.748 206.361 174.621 205.981 175.422C205.601 176.222 204.92 176.912 204.03 177.399C203.139 177.886 202.082 178.146 200.999 178.146H200.999Z" fill="#FFEF63" fill-opacity="0.86"/>
<path d="M475.545 178.146C474.462 178.146 473.405 177.886 472.514 177.399C471.624 176.912 470.943 176.222 470.563 175.422C470.182 174.621 470.12 173.748 470.385 172.919C470.65 172.09 471.229 171.344 472.045 170.782L517.723 139.296C518.786 138.565 520.173 138.196 521.579 138.272C522.986 138.348 524.297 138.862 525.224 139.7C526.151 140.539 526.619 141.634 526.524 142.745C526.429 143.856 525.78 144.891 524.719 145.624L479.04 177.11C478.073 177.779 476.83 178.147 475.545 178.146Z" fill="#FFEF63" fill-opacity="0.86"/>
<path d="M387.536 452.709H296.586C295.176 452.709 293.823 452.266 292.825 451.479C291.828 450.691 291.267 449.623 291.267 448.509C291.267 447.395 291.828 446.327 292.825 445.539C293.823 444.751 295.176 444.309 296.586 444.309H387.536C388.947 444.309 390.3 444.751 391.298 445.539C392.295 446.327 392.855 447.395 392.855 448.509C392.855 449.623 392.295 450.691 391.298 451.479C390.3 452.266 388.947 452.709 387.536 452.709Z" fill="#E5E5E5"/>
<path d="M342.061 436.96C341.363 436.96 340.671 436.851 340.026 436.64C339.381 436.429 338.794 436.12 338.3 435.73C337.806 435.34 337.415 434.877 337.147 434.367C336.88 433.858 336.742 433.311 336.742 432.76V337.002C336.742 335.888 337.303 334.819 338.3 334.032C339.298 333.244 340.651 332.801 342.061 332.801C343.472 332.801 344.825 333.244 345.822 334.032C346.82 334.819 347.38 335.888 347.38 337.002V432.76C347.38 433.311 347.243 433.858 346.976 434.367C346.708 434.877 346.316 435.34 345.823 435.73C345.329 436.12 344.742 436.429 344.097 436.64C343.452 436.851 342.76 436.96 342.061 436.96V436.96Z" fill="white"/>
<path d="M342.061 341.202C324.875 341.202 303.775 328.924 302.886 328.402C302.325 328.073 301.852 327.659 301.494 327.186C301.136 326.712 300.899 326.188 300.798 325.642C300.696 325.096 300.732 324.54 300.903 324.005C301.073 323.471 301.376 322.967 301.793 322.525C302.21 322.082 302.733 321.709 303.332 321.426C303.932 321.143 304.596 320.956 305.288 320.876C305.979 320.796 306.683 320.824 307.36 320.959C308.038 321.094 308.675 321.333 309.235 321.662C314.521 324.759 330.729 332.801 342.061 332.801C353.393 332.801 369.601 324.759 374.89 321.66C375.451 321.331 376.088 321.092 376.765 320.958C377.443 320.823 378.147 320.795 378.838 320.876C379.529 320.956 380.194 321.143 380.793 321.426C381.393 321.709 381.916 322.082 382.333 322.525C382.749 322.968 383.052 323.471 383.222 324.006C383.393 324.541 383.428 325.097 383.326 325.643C383.225 326.188 382.988 326.713 382.629 327.186C382.271 327.66 381.798 328.073 381.237 328.402C380.348 328.924 359.248 341.202 342.061 341.202Z" fill="white"/>
<path d="M342.061 136.219C340.65 136.219 339.297 135.777 338.3 134.989C337.302 134.201 336.742 133.133 336.742 132.019V60.2002C336.742 59.0862 337.302 58.0179 338.3 57.2302C339.297 56.4425 340.65 56 342.061 56C343.472 56 344.824 56.4425 345.822 57.2302C346.82 58.0179 347.38 59.0862 347.38 60.2002V132.019C347.38 133.133 346.819 134.201 345.822 134.989C344.824 135.777 343.472 136.219 342.061 136.219Z" fill="#FFEF63" fill-opacity="0.86"/>
</svg>
