<svg width="629" height="586" viewBox="0 0 629 586" fill="none" xmlns="http://www.w3.org/2000/svg">
<g clip-path="url(#clip0)">
<path d="M628.634 581.522H381.909V579.944H629L628.634 581.522Z" fill="#3F3D56"/>
<path d="M482.304 550.607H468.902V573.084H482.304V550.607Z" fill="#FBBEBE"/>
<path d="M586.647 551.356H573.245V573.834H586.647V551.356Z" fill="#FBBEBE"/>
<path d="M588.083 562.22L571.809 560.722L529.689 408.623L483.74 561.471L467.466 559.972C464.781 490.811 472.629 421.622 479.432 364.042L576.595 357.674C594.902 414.413 595.653 485.028 588.083 562.22Z" fill="#2F2E41"/>
<path d="M577.978 366.672C577.978 366.672 555.347 385.155 568.138 389.776C580.93 394.397 588.801 368.983 588.801 368.983L577.978 366.672Z" fill="#FBBEBE"/>
<path d="M462.148 368.171C462.148 368.171 439.517 386.654 452.308 391.275C465.1 395.895 472.971 370.481 472.971 370.481L462.148 368.171Z" fill="#FBBEBE"/>
<path d="M531.125 234.421C545.928 234.421 557.928 225.028 557.928 213.442C557.928 201.855 545.928 192.463 531.125 192.463C516.322 192.463 504.321 201.855 504.321 213.442C504.321 225.028 516.322 234.421 531.125 234.421Z" fill="#FBBEBE"/>
<path d="M562.236 257.273L514.373 261.02C518.797 245.431 519.869 230.868 514.373 218.312H547.877C546.057 228.774 552.86 242.532 562.236 257.273Z" fill="#FBBEBE"/>
<path d="M575.638 365.915C557.754 382.754 520.17 377.124 477.039 365.166C489.278 333.897 487.38 300.908 476.382 266.811C475.783 264.978 476.03 263.039 477.081 261.335C478.132 259.632 479.919 258.274 482.125 257.502L517.244 245.285L530.646 247.533L553.621 243.037L586.233 248.259C588.885 248.683 591.254 249.838 592.912 251.513C594.57 253.188 595.406 255.272 595.269 257.388C592.541 299.239 587.716 337.97 575.638 365.915Z" fill="#5261E8"/>
<path d="M585.211 379.402L576.595 368.163L592.869 320.211L584.253 248.282C589.811 248.717 595.048 250.524 599.207 253.442C603.366 256.359 606.232 260.236 607.391 264.513L620.462 312.74C622.432 320.01 621.249 327.586 617.101 334.271L585.211 379.402Z" fill="#5261E8"/>
<path d="M473.21 371.16L453.586 373.782L466.099 277.905C466.221 273.121 468.14 268.47 471.618 264.535C475.096 260.599 479.978 257.552 485.654 255.775V255.775L491.877 319.087L473.21 371.16Z" fill="#5261E8"/>
<path d="M477.208 580.939L441.087 585.905C439.447 586.13 437.759 585.953 436.254 585.396V585.396C435.062 584.956 434.027 584.293 433.239 583.466C432.451 582.64 431.933 581.674 431.733 580.655C431.533 579.635 431.655 578.593 432.089 577.619C432.523 576.645 433.256 575.769 434.224 575.069L449.697 563.863L453.731 558.346C454.866 556.748 456.485 555.393 458.446 554.4C460.407 553.407 462.649 552.806 464.977 552.651C471.875 552.277 474.152 556.385 472.709 564.101C477.949 567.118 478.777 566.655 482.304 562.595L483.905 575.314C483.722 576.694 482.969 577.99 481.761 579.005C480.552 580.02 478.954 580.699 477.208 580.939Z" fill="#2F2E41"/>
<path d="M581.551 580.939L545.43 585.905C543.79 586.13 542.102 585.953 540.597 585.396V585.396C539.405 584.956 538.37 584.293 537.581 583.466C536.793 582.64 536.276 581.674 536.076 580.655C535.875 579.635 535.998 578.593 536.432 577.619C536.866 576.645 537.599 575.769 538.566 575.069L554.04 563.863L558.074 558.346C559.208 556.748 560.828 555.393 562.789 554.4C564.749 553.407 566.992 552.806 569.319 552.651C576.218 552.277 578.494 556.385 577.052 564.101C582.291 567.118 583.12 566.655 586.647 562.595L588.247 575.314C588.065 576.694 587.312 577.99 586.104 579.005C584.895 580.02 583.297 580.699 581.551 580.939V580.939Z" fill="#2F2E41"/>
<path d="M509.844 201.488C521.926 196.078 534.024 199.535 546.142 214.297L548.62 230.021C566.808 216.535 565.889 198.13 545.492 190.644C543.487 189.908 541.543 189.071 539.361 189.367C535.048 187.555 530.014 187.1 525.287 188.093C520.56 189.087 516.495 191.456 513.923 194.716C510.154 195.226 504.752 201.086 504.946 204.076L509.844 201.488Z" fill="#2F2E41"/>
<path d="M545.005 217.937C546.856 217.937 548.356 216.428 548.356 214.566C548.356 212.704 546.856 211.194 545.005 211.194C543.155 211.194 541.655 212.704 541.655 214.566C541.655 216.428 543.155 217.937 545.005 217.937Z" fill="#FBBEBE"/>
<path d="M144.936 374.628H200.713C200.713 379.198 198.393 383.581 194.264 386.813C190.135 390.045 184.535 391.86 178.696 391.86H166.953C161.114 391.86 155.513 390.045 151.384 386.813C147.255 383.581 144.936 379.198 144.936 374.628H144.936Z" fill="#3F3D56"/>
<path d="M213.745 336.045V320.03C213.745 300.68 240.634 282.376 258.076 269.318C282.663 250.922 295.587 226.206 295.587 197.253C295.587 171.816 282.7 147.417 259.751 129.405C236.802 111.393 205.664 101.238 173.165 101.167C140.665 101.097 109.456 111.115 86.3795 129.027C63.303 146.939 50.2425 171.282 50.0614 196.719C50.0608 196.897 50.0608 197.075 50.0614 197.253C50.0614 225.172 63.5398 251.562 87.5723 269.318C104.921 282.136 131.903 300.479 131.903 320.03V336.045" fill="#FFEF63" fill-opacity="0.56"/>
<path d="M213.746 338.292C213.368 338.292 212.995 338.234 212.647 338.121C212.298 338.008 211.981 337.843 211.715 337.634C211.448 337.425 211.237 337.177 211.092 336.905C210.948 336.632 210.874 336.34 210.874 336.045V320.03C210.874 301.205 234.594 283.631 251.914 270.799C253.352 269.734 254.749 268.699 256.091 267.694C280.051 249.766 292.715 225.408 292.715 197.254C292.715 144.634 240.053 103.415 172.824 103.415C172.712 103.414 172.599 103.414 172.486 103.414C140.848 103.442 110.51 113.274 88.1073 130.759C65.7041 148.245 53.0577 171.962 52.9331 196.725V197.249C52.9331 224.823 66.277 250.493 89.5436 267.684C90.7225 268.555 91.9467 269.452 93.2035 270.373C110.748 283.229 134.775 300.836 134.775 320.03V336.045C134.775 336.641 134.473 337.212 133.934 337.634C133.396 338.055 132.665 338.292 131.903 338.292C131.142 338.292 130.411 338.055 129.873 337.634C129.334 337.212 129.032 336.641 129.032 336.045V320.03C129.032 302.786 106.055 285.949 89.2782 273.654C88.0152 272.73 86.7854 271.828 85.601 270.953C61.1901 252.917 47.1895 226.054 47.1895 197.253V196.714C47.382 142.734 103.558 98.9189 172.478 98.9189C172.6 98.9189 172.71 98.9189 172.832 98.9192C189.355 98.852 205.73 101.35 221.011 106.268C236.292 111.186 250.175 118.427 261.858 127.571C273.541 136.716 282.791 147.583 289.074 159.544C295.356 171.504 298.546 184.322 298.459 197.253C298.459 226.665 285.181 252.147 260.061 270.943C258.713 271.953 257.307 272.994 255.863 274.064C239.3 286.335 216.617 303.139 216.617 320.03V336.044C216.617 336.34 216.543 336.632 216.399 336.905C216.254 337.177 216.043 337.425 215.776 337.634C215.51 337.843 215.193 338.008 214.845 338.121C214.496 338.234 214.123 338.292 213.746 338.292Z" fill="#3F3D56"/>
<path d="M200.105 367.135H145.544C144.274 367.135 143.057 366.74 142.159 366.038C141.262 365.335 140.757 364.382 140.757 363.389C140.757 362.395 141.262 361.442 142.159 360.74C143.057 360.037 144.274 359.642 145.544 359.642H200.105C201.374 359.642 202.592 360.037 203.489 360.74C204.387 361.442 204.891 362.395 204.891 363.389C204.891 364.382 204.387 365.335 203.489 366.038C202.592 366.74 201.374 367.135 200.105 367.135V367.135Z" fill="#E5E5E5"/>
<path d="M45.8887 108.946C44.7315 108.947 43.6135 108.619 42.7429 108.022L1.63862 79.9387C1.16445 79.6153 0.776346 79.222 0.49651 78.7812C0.216675 78.3403 0.0505888 77.8606 0.00773703 77.3695C-0.0351148 76.8784 0.0460998 76.3855 0.246763 75.919C0.447426 75.4525 0.763595 75.0215 1.17719 74.6507C1.59078 74.2798 2.0937 73.9765 2.65718 73.7578C3.22066 73.5392 3.83366 73.4097 4.46115 73.3766C5.08864 73.3435 5.71832 73.4075 6.31417 73.565C6.91003 73.7225 7.46038 73.9704 7.93378 74.2944L49.0381 102.378C49.7722 102.879 50.2931 103.544 50.5314 104.284C50.7697 105.023 50.7139 105.802 50.3715 106.516C50.0291 107.23 49.4165 107.845 48.6155 108.28C47.8144 108.714 46.8631 108.946 45.8887 108.946H45.8887Z" fill="#E6E6E6"/>
<path d="M292.94 108.946C291.966 108.946 291.015 108.714 290.213 108.28C289.412 107.845 288.8 107.23 288.457 106.516C288.115 105.802 288.059 105.023 288.298 104.284C288.536 103.544 289.057 102.879 289.791 102.378L330.895 74.2944C331.851 73.6421 333.099 73.3137 334.365 73.3814C335.631 73.449 336.81 73.9072 337.645 74.6552C338.479 75.4033 338.9 76.3799 338.814 77.3706C338.729 78.3613 338.145 79.285 337.19 79.9387L296.086 108.022C295.215 108.619 294.097 108.947 292.94 108.946V108.946Z" fill="#E6E6E6"/>
<path d="M213.746 353.838H131.903C130.634 353.838 129.417 353.443 128.519 352.741C127.621 352.038 127.117 351.085 127.117 350.092C127.117 349.098 127.621 348.145 128.519 347.443C129.417 346.74 130.634 346.345 131.903 346.345H213.746C215.015 346.345 216.232 346.74 217.13 347.443C218.028 348.145 218.532 349.098 218.532 350.092C218.532 351.085 218.028 352.038 217.13 352.741C216.232 353.443 215.015 353.838 213.746 353.838Z" fill="#E5E5E5"/>
<path d="M172.824 339.791C172.196 339.791 171.574 339.694 170.993 339.506C170.412 339.317 169.884 339.041 169.44 338.694C168.996 338.346 168.643 337.933 168.402 337.478C168.162 337.024 168.038 336.536 168.038 336.045V250.635C168.038 249.641 168.542 248.688 169.44 247.986C170.338 247.283 171.555 246.888 172.824 246.888C174.094 246.888 175.311 247.283 176.209 247.986C177.107 248.688 177.611 249.641 177.611 250.635V336.045C177.611 336.536 177.487 337.024 177.247 337.478C177.006 337.933 176.653 338.346 176.209 338.694C175.765 339.041 175.237 339.317 174.656 339.506C174.075 339.694 173.453 339.791 172.824 339.791V339.791Z" fill="white"/>
<path d="M172.825 254.381C157.36 254.381 138.372 243.43 137.572 242.964C137.068 242.671 136.642 242.302 136.32 241.88C135.997 241.457 135.784 240.989 135.693 240.503C135.602 240.016 135.634 239.52 135.787 239.043C135.941 238.566 136.213 238.117 136.588 237.722C136.964 237.328 137.434 236.995 137.974 236.742C138.514 236.49 139.111 236.323 139.733 236.252C140.355 236.18 140.989 236.205 141.598 236.326C142.208 236.446 142.781 236.659 143.286 236.953C148.042 239.715 162.627 246.888 172.825 246.888C183.022 246.888 197.607 239.715 202.366 236.951C202.87 236.658 203.444 236.445 204.053 236.325C204.663 236.205 205.297 236.18 205.918 236.251C206.54 236.323 207.138 236.49 207.678 236.742C208.217 236.995 208.688 237.328 209.063 237.723C209.438 238.117 209.71 238.566 209.863 239.043C210.017 239.52 210.048 240.016 209.957 240.503C209.865 240.99 209.652 241.458 209.33 241.88C209.007 242.302 208.582 242.671 208.077 242.964C207.277 243.43 188.29 254.381 172.825 254.381Z" fill="white"/>
<path d="M172.824 71.5502C171.555 71.5501 170.337 71.1554 169.44 70.4529C168.542 69.7503 168.038 68.7975 168.038 67.8039V3.74628C168.038 2.7527 168.542 1.79982 169.44 1.09726C170.337 0.394696 171.555 0 172.824 0C174.093 0 175.311 0.394696 176.208 1.09726C177.106 1.79982 177.61 2.7527 177.61 3.74628V67.8039C177.61 68.7975 177.106 69.7503 176.208 70.4529C175.311 71.1554 174.093 71.5501 172.824 71.5502V71.5502Z" fill="#E6E6E6"/>
</g>
<defs>
<clipPath id="clip0">
<rect width="629" height="586" fill="white"/>
</clipPath>
</defs>
</svg>
