<svg width="699" height="657" viewBox="0 0 699 657" fill="none" xmlns="http://www.w3.org/2000/svg">
<g clip-path="url(#clip0)">
<path d="M698.593 651.98H424.41V650.211H699L698.593 651.98Z" fill="#3F3D56"/>
<path d="M535.978 617.318H521.085V642.519H535.978V617.318Z" fill="#FBBEBE"/>
<path d="M651.933 618.158H637.04V643.359H651.933V618.158Z" fill="#FBBEBE"/>
<path d="M653.529 630.339L635.444 628.659L588.637 458.132L537.574 629.499L519.489 627.819C516.505 550.278 525.227 472.706 532.787 408.15L640.763 401.009C661.107 464.623 661.942 543.794 653.529 630.339Z" fill="#2F2E41"/>
<path d="M642.3 411.098C642.3 411.098 617.15 431.821 631.365 437.001C645.58 442.182 654.327 413.689 654.327 413.689L642.3 411.098Z" fill="#FBBEBE"/>
<path d="M513.579 412.778C513.579 412.778 488.43 433.501 502.645 438.682C516.859 443.862 525.607 415.369 525.607 415.369L513.579 412.778Z" fill="#FBBEBE"/>
<path d="M590.233 262.824C606.683 262.824 620.019 252.293 620.019 239.303C620.019 226.312 606.683 215.782 590.233 215.782C573.782 215.782 560.446 226.312 560.446 239.303C560.446 252.293 573.782 262.824 590.233 262.824Z" fill="#FBBEBE"/>
<path d="M624.806 288.445L571.616 292.645C576.533 275.168 577.724 258.84 571.616 244.763H608.849C606.827 256.493 614.387 271.917 624.806 288.445Z" fill="#FBBEBE"/>
<path d="M639.7 410.25C619.825 429.128 578.059 422.816 530.128 409.41C543.729 374.352 541.62 337.366 529.398 299.137C528.731 297.083 529.007 294.908 530.174 292.999C531.342 291.089 533.328 289.567 535.78 288.701L574.807 275.004L589.701 277.524L615.232 272.484L651.474 278.338C654.42 278.814 657.054 280.108 658.896 281.986C660.738 283.864 661.667 286.201 661.515 288.573C658.484 335.495 653.122 378.919 639.7 410.25Z" fill="#5261E8"/>
<path d="M650.337 425.37L640.763 412.77L658.848 359.008L649.274 278.364C655.45 278.852 661.269 280.878 665.891 284.149C670.513 287.42 673.699 291.767 674.987 296.561L689.511 350.632C691.701 358.783 690.387 367.277 685.777 374.772L650.337 425.37Z" fill="#5261E8"/>
<path d="M525.872 416.13L504.064 419.07L517.97 311.576C518.105 306.212 520.238 300.998 524.103 296.586C527.968 292.173 533.393 288.757 539.702 286.765V286.765L546.616 357.748L525.872 416.13Z" fill="#5261E8"/>
<path d="M530.315 651.326L490.174 656.893C488.353 657.146 486.476 656.947 484.804 656.323V656.323C483.479 655.829 482.329 655.086 481.453 654.159C480.577 653.232 480.002 652.15 479.78 651.007C479.557 649.864 479.693 648.695 480.175 647.603C480.658 646.511 481.472 645.53 482.547 644.744L499.743 632.181L504.226 625.995C505.487 624.204 507.286 622.684 509.465 621.571C511.644 620.458 514.137 619.785 516.723 619.611C524.389 619.191 526.919 623.797 525.316 632.448C531.139 635.83 532.059 635.311 535.979 630.759L537.758 645.02C537.554 646.567 536.718 648.02 535.375 649.158C534.032 650.296 532.256 651.057 530.315 651.326Z" fill="#2F2E41"/>
<path d="M646.27 651.326L606.129 656.893C604.307 657.146 602.431 656.947 600.758 656.323V656.323C599.434 655.829 598.284 655.086 597.408 654.159C596.532 653.232 595.957 652.15 595.734 651.007C595.512 649.864 595.648 648.695 596.13 647.603C596.613 646.511 597.427 645.53 598.502 644.744L615.698 632.181L620.18 625.995C621.442 624.204 623.241 622.684 625.42 621.571C627.599 620.458 630.091 619.785 632.678 619.611C640.344 619.191 642.874 623.797 641.271 632.448C647.093 635.83 648.014 635.311 651.933 630.759L653.712 645.02C653.509 646.567 652.673 648.02 651.33 649.158C649.987 650.296 648.21 651.057 646.27 651.326V651.326Z" fill="#2F2E41"/>
<path d="M566.584 225.901C580.01 219.835 593.454 223.711 606.921 240.261L609.675 257.891C629.887 242.77 628.865 222.135 606.198 213.742C603.97 212.917 601.81 211.979 599.385 212.311C594.592 210.279 588.998 209.769 583.745 210.883C578.491 211.997 573.975 214.653 571.116 218.307C566.928 218.88 560.925 225.45 561.141 228.802L566.584 225.901Z" fill="#2F2E41"/>
<path d="M605.658 244.343C607.714 244.343 609.381 242.65 609.381 240.563C609.381 238.475 607.714 236.783 605.658 236.783C603.601 236.783 601.934 238.475 601.934 240.563C601.934 242.65 603.601 244.343 605.658 244.343Z" fill="#FBBEBE"/>
<path d="M161.065 420.018H223.05C223.05 425.142 220.472 430.056 215.883 433.679C211.295 437.303 205.071 439.338 198.582 439.338H185.533C179.044 439.338 172.82 437.303 168.232 433.679C163.643 430.056 161.065 425.142 161.065 420.018Z" fill="#3F3D56" fill-opacity="0.42"/>
<path d="M237.533 376.76V358.805C237.533 337.11 267.413 316.589 286.797 301.949C314.12 281.323 328.483 253.613 328.483 221.153C328.482 192.633 314.161 165.278 288.658 145.083C263.155 124.889 228.552 113.504 192.436 113.425C156.32 113.346 121.637 124.578 95.9925 144.66C70.3478 164.742 55.8338 192.034 55.6326 220.553C55.6319 220.753 55.6319 220.953 55.6326 221.153C55.6326 252.454 70.611 282.042 97.318 301.949C116.598 316.32 146.583 336.886 146.583 358.805V376.76" fill="#FFEF63" fill-opacity="0.86"/>
<path d="M237.533 379.28C237.114 379.28 236.699 379.215 236.311 379.088C235.924 378.961 235.572 378.776 235.276 378.542C234.98 378.308 234.745 378.03 234.584 377.724C234.424 377.418 234.341 377.091 234.341 376.76V358.805C234.341 337.699 260.702 317.996 279.949 303.61C281.547 302.415 283.1 301.254 284.591 300.128C311.217 280.028 325.291 252.719 325.291 221.153C325.291 162.158 266.768 115.945 192.058 115.945C191.933 115.944 191.807 115.944 191.682 115.944C156.522 115.975 122.809 126.998 97.9125 146.602C73.0162 166.206 58.9624 192.797 58.8239 220.56V221.147C58.8239 252.062 73.6528 280.843 99.5088 300.116C100.819 301.093 102.179 302.099 103.576 303.131C123.072 317.546 149.774 337.286 149.774 358.805V376.76C149.774 377.428 149.438 378.069 148.839 378.542C148.241 379.014 147.429 379.28 146.583 379.28C145.736 379.28 144.924 379.014 144.326 378.542C143.727 378.069 143.391 377.428 143.391 376.76V358.805C143.391 339.472 117.857 320.595 99.2137 306.81C97.8102 305.774 96.4436 304.763 95.1273 303.782C67.9998 283.56 52.4411 253.443 52.4411 221.153V220.548C52.6551 160.028 115.083 110.904 191.672 110.904C191.808 110.904 191.931 110.904 192.067 110.904C210.428 110.829 228.625 113.629 245.607 119.143C262.588 124.657 278.017 132.775 291 143.028C303.983 153.28 314.262 165.464 321.244 178.874C328.225 192.284 331.77 206.654 331.674 221.153C331.674 254.128 316.918 282.697 289.003 303.771C287.504 304.902 285.943 306.07 284.337 307.27C265.931 321.027 240.724 339.868 240.724 358.805V376.76C240.724 377.091 240.642 377.418 240.481 377.724C240.321 378.03 240.086 378.308 239.79 378.542C239.493 378.776 239.141 378.961 238.754 379.088C238.367 379.215 237.952 379.28 237.533 379.28Z" fill="#3F3D56" fill-opacity="0.24"/>
<path d="M222.374 411.617H161.741C160.33 411.617 158.977 411.175 157.98 410.387C156.982 409.599 156.422 408.531 156.422 407.417C156.422 406.303 156.982 405.235 157.98 404.447C158.977 403.659 160.33 403.217 161.741 403.217H222.374C223.785 403.217 225.138 403.659 226.135 404.447C227.133 405.235 227.693 406.303 227.693 407.417C227.693 408.531 227.133 409.599 226.135 410.387C225.138 411.175 223.785 411.617 222.374 411.617V411.617Z" fill="#E5E5E5"/>
<path d="M50.9956 122.146C49.7097 122.147 48.4672 121.779 47.4998 121.11L1.82108 89.6241C1.29414 89.2616 0.862846 88.8205 0.551868 88.3263C0.24089 87.8321 0.0563211 87.2943 0.00870038 86.7437C-0.0389203 86.1931 0.0513324 85.6404 0.274327 85.1174C0.497322 84.5943 0.848676 84.1111 1.3083 83.6954C1.76792 83.2796 2.3268 82.9395 2.95299 82.6944C3.57919 82.4492 4.2604 82.304 4.95773 82.2669C5.65505 82.2298 6.3548 82.3016 7.01696 82.4782C7.67913 82.6547 8.29073 82.9326 8.81681 83.296L54.4956 114.782C55.3113 115.344 55.8902 116.09 56.155 116.919C56.4198 117.748 56.3578 118.621 55.9774 119.422C55.5969 120.222 54.9161 120.912 54.0259 121.399C53.1357 121.886 52.0785 122.146 50.9956 122.146H50.9956Z" fill="#FFEF63" fill-opacity="0.86"/>
<path d="M325.541 122.146C324.458 122.146 323.401 121.886 322.511 121.399C321.62 120.912 320.94 120.222 320.559 119.422C320.179 118.621 320.117 117.748 320.382 116.919C320.646 116.09 321.225 115.344 322.041 114.782L367.719 83.296C368.782 82.5646 370.169 82.1964 371.576 82.2723C372.982 82.3481 374.293 82.8618 375.22 83.7005C376.147 84.5391 376.615 85.6342 376.52 86.7449C376.425 87.8556 375.776 88.8912 374.715 89.6241L329.037 121.11C328.069 121.779 326.827 122.147 325.541 122.146Z" fill="#FFEF63" fill-opacity="0.86"/>
<path d="M237.533 396.709H146.583C145.172 396.709 143.819 396.266 142.822 395.479C141.824 394.691 141.264 393.623 141.264 392.509C141.264 391.395 141.824 390.327 142.822 389.539C143.819 388.751 145.172 388.309 146.583 388.309H237.533C238.943 388.309 240.296 388.751 241.294 389.539C242.291 390.327 242.852 391.395 242.852 392.509C242.852 393.623 242.291 394.691 241.294 395.479C240.296 396.266 238.943 396.709 237.533 396.709Z" fill="#E5E5E5"/>
<path d="M192.058 380.96C191.359 380.96 190.668 380.851 190.022 380.64C189.377 380.429 188.791 380.12 188.297 379.73C187.803 379.34 187.411 378.877 187.144 378.367C186.876 377.858 186.739 377.311 186.739 376.76V281.002C186.739 279.888 187.299 278.819 188.297 278.032C189.294 277.244 190.647 276.801 192.058 276.801C193.468 276.801 194.821 277.244 195.819 278.032C196.816 278.819 197.377 279.888 197.377 281.002V376.76C197.377 377.311 197.239 377.858 196.972 378.367C196.705 378.877 196.313 379.34 195.819 379.73C195.325 380.12 194.739 380.429 194.093 380.64C193.448 380.851 192.756 380.96 192.058 380.96V380.96Z" fill="white"/>
<path d="M192.058 285.202C174.872 285.202 153.772 272.924 152.882 272.402C152.321 272.073 151.849 271.659 151.49 271.186C151.132 270.712 150.896 270.188 150.794 269.642C150.693 269.096 150.728 268.54 150.899 268.005C151.07 267.471 151.372 266.967 151.789 266.525C152.206 266.082 152.729 265.709 153.329 265.426C153.928 265.143 154.593 264.956 155.284 264.876C155.975 264.796 156.679 264.824 157.357 264.959C158.034 265.094 158.671 265.333 159.231 265.662C164.518 268.759 180.726 276.801 192.058 276.801C203.39 276.801 219.598 268.759 224.887 265.66C225.447 265.331 226.084 265.092 226.762 264.958C227.439 264.823 228.144 264.795 228.835 264.876C229.526 264.956 230.19 265.143 230.79 265.426C231.389 265.709 231.912 266.082 232.329 266.525C232.746 266.968 233.048 267.471 233.218 268.006C233.389 268.541 233.424 269.097 233.323 269.643C233.221 270.188 232.984 270.713 232.626 271.186C232.267 271.66 231.794 272.073 231.234 272.402C230.344 272.924 209.244 285.202 192.058 285.202Z" fill="white"/>
<path d="M192.057 80.2192C190.647 80.2192 189.294 79.7767 188.296 78.989C187.299 78.2013 186.738 77.133 186.738 76.0191V4.20018C186.738 3.08622 187.299 2.01789 188.296 1.2302C189.294 0.442517 190.647 0 192.057 0C193.468 0 194.821 0.442517 195.818 1.2302C196.816 2.01789 197.376 3.08622 197.376 4.20018V76.0191C197.376 77.133 196.816 78.2013 195.818 78.989C194.821 79.7767 193.468 80.2192 192.057 80.2192Z" fill="#FFEF63" fill-opacity="0.86"/>
</g>
<defs>
<clipPath id="clip0">
<rect width="699" height="657" fill="white"/>
</clipPath>
</defs>
</svg>
